bicep_curl
version=1
nRows=363
nColumns=3
inDegrees=yes

# SIMM Motion File Header:
name bicep_curl
datacolumns 3
datarows 363
otherdata 1
range 0.0000 0.3620
endheader
time	/jointset/r_shoulder/r_shoulder_elev/value	/jointset/r_elbow/r_elbow_flex/value
0.0000	0.0000	65.6600
0.0010	0.0000	65.5630
0.0020	0.0000	65.4660
0.0030	0.0000	65.3690
0.0040	0.0000	65.2720
0.0050	0.0000	65.1751
0.0060	0.0000	65.0781
0.0070	0.0000	64.9811
0.0080	0.0000	64.8841
0.0090	0.0000	64.7871
0.0100	0.0000	64.6901
0.0110	0.0000	64.5931
0.0120	0.0000	64.4961
0.0130	0.0000	64.3992
0.0140	0.0000	64.3022
0.0150	0.0000	64.2052
0.0160	0.0000	64.1082
0.0170	0.0000	64.0112
0.0180	0.0000	63.9142
0.0190	0.0000	63.8172
0.0200	0.0000	63.7202
0.0210	0.0000	63.6233
0.0220	0.0000	63.5263
0.0230	0.0000	63.4293
0.0240	0.0000	63.3323
0.0250	0.0000	63.2353
0.0260	0.0000	63.1383
0.0270	0.0000	63.0413
0.0280	0.0000	62.9443
0.0290	0.0000	62.8473
0.0300	0.0000	62.7504
0.0310	0.0000	62.6534
0.0320	0.0000	62.5564
0.0330	0.0000	62.4594
0.0340	0.0000	62.3624
0.0350	0.0000	62.2654
0.0360	0.0000	62.1684
0.0370	0.0000	62.0714
0.0380	0.0000	61.9745
0.0390	0.0000	61.8775
0.0400	0.0000	61.7805
0.0410	0.0000	61.6835
0.0420	0.0000	61.5865
0.0430	0.0000	61.4895
0.0440	0.0000	61.3925
0.0450	0.0000	61.2955
0.0460	0.0000	61.1986
0.0470	0.0000	61.1016
0.0480	0.0000	61.0046
0.0490	0.0000	60.9076
0.0500	0.0000	60.8106
0.0510	0.0000	60.7136
0.0520	0.0000	60.6166
0.0530	0.0000	60.5196
0.0540	0.0000	60.4227
0.0550	0.0000	60.3257
0.0560	0.0000	60.2287
0.0570	0.0000	60.1317
0.0580	0.0000	60.0347
0.0590	0.0000	59.9377
0.0600	0.0000	59.8407
0.0610	0.0000	59.7437
0.0620	0.0000	59.6467
0.0630	0.0000	59.5498
0.0640	0.0000	59.4528
0.0650	0.0000	59.3558
0.0660	0.0000	59.2588
0.0670	0.0000	59.1618
0.0680	0.0000	59.0648
0.0690	0.0000	58.9678
0.0700	0.0000	58.8708
0.0710	0.0000	58.7739
0.0720	0.0000	58.6769
0.0730	0.0000	58.5799
0.0740	0.0000	58.4829
0.0750	0.0000	58.3859
0.0760	0.0000	58.2889
0.0770	0.0000	58.1919
0.0780	0.0000	58.0949
0.0790	0.0000	57.9980
0.0800	0.0000	57.9010
0.0810	0.0000	57.8040
0.0820	0.0000	57.7070
0.0830	0.0000	57.6100
0.0840	0.0000	57.5130
0.0850	0.0000	57.4160
0.0860	0.0000	57.3190
0.0870	0.0000	57.2220
0.0880	0.0000	57.1251
0.0890	0.0000	57.0281
0.0900	0.0000	56.9311
0.0910	0.0000	56.8341
0.0920	0.0000	56.7371
0.0930	0.0000	56.6401
0.0940	0.0000	56.5431
0.0950	0.0000	56.4461
0.0960	0.0000	56.3492
0.0970	0.0000	56.2522
0.0980	0.0000	56.1552
0.0990	0.0000	56.0582
0.1000	0.0000	55.9612
0.1010	0.0000	55.8642
0.1020	0.0000	55.7672
0.1030	0.0000	55.6702
0.1040	0.0000	55.5733
0.1050	0.0000	55.4763
0.1060	0.0000	55.3793
0.1070	0.0000	55.2823
0.1080	0.0000	55.1853
0.1090	0.0000	55.0883
0.1100	0.0000	54.9913
0.1110	0.0000	54.8943
0.1120	0.0000	54.7973
0.1130	0.0000	54.7004
0.1140	0.0000	54.6034
0.1150	0.0000	54.5064
0.1160	0.0000	54.4094
0.1170	0.0000	54.3124
0.1180	0.0000	54.2154
0.1190	0.0000	54.1184
0.1200	0.0000	54.0214
0.1210	0.0000	53.9245
0.1220	0.0000	53.8275
0.1230	0.0000	53.7305
0.1240	0.0000	53.6335
0.1250	0.0000	53.5365
0.1260	0.0000	53.4395
0.1270	0.0000	53.3425
0.1280	0.0000	53.2455
0.1290	0.0000	53.1486
0.1300	0.0000	53.0516
0.1310	0.0000	52.9546
0.1320	0.0000	52.8576
0.1330	0.0000	52.7606
0.1340	0.0000	52.6636
0.1350	0.0000	52.5666
0.1360	0.0000	52.4696
0.1370	0.0000	52.3727
0.1380	0.0000	52.2757
0.1390	0.0000	52.1787
0.1400	0.0000	52.0817
0.1410	0.0000	51.9847
0.1420	0.0000	51.8877
0.1430	0.0000	51.7907
0.1440	0.0000	51.6937
0.1450	0.0000	51.5967
0.1460	0.0000	51.4998
0.1470	0.0000	51.4028
0.1480	0.0000	51.3058
0.1490	0.0000	51.2088
0.1500	0.0000	51.1118
0.1510	0.0000	51.0148
0.1520	0.0000	50.9178
0.1530	0.0000	50.8208
0.1540	0.0000	50.7239
0.1550	0.0000	50.6269
0.1560	0.0000	50.5299
0.1570	0.0000	50.4329
0.1580	0.0000	50.3359
0.1590	0.0000	50.2389
0.1600	0.0000	50.1419
0.1610	0.0000	50.0449
0.1620	0.0000	49.9480
0.1630	0.0000	49.8510
0.1640	0.0000	49.7540
0.1650	0.0000	49.6570
0.1660	0.0000	49.4142
0.1670	0.0000	49.6328
0.1680	0.0000	49.8507
0.1690	0.0000	50.0679
0.1700	0.0000	50.2843
0.1710	0.0000	50.5000
0.1720	0.0000	50.7150
0.1730	0.0000	50.9293
0.1740	0.0000	51.1428
0.1750	0.0000	51.3556
0.1760	0.0000	51.5677
0.1770	0.0000	51.7791
0.1780	0.0000	51.9897
0.1790	0.0000	52.1996
0.1800	0.0000	52.4088
0.1810	0.0000	52.6172
0.1820	0.0000	52.8249
0.1830	0.0000	53.0319
0.1840	0.0000	53.2382
0.1850	0.0000	53.4437
0.1860	0.0000	53.6486
0.1870	0.0000	53.8526
0.1880	0.0000	54.0560
0.1890	0.0000	54.2586
0.1900	0.0000	54.4605
0.1910	0.0000	54.6617
0.1920	0.0000	54.8622
0.1930	0.0000	55.0619
0.1940	0.0000	55.2609
0.1950	0.0000	55.4592
0.1960	0.0000	55.6567
0.1970	0.0000	55.8535
0.1980	0.0000	56.0496
0.1990	0.0000	56.2450
0.2000	0.0000	56.4396
0.2010	0.0000	56.6335
0.2020	0.0000	56.8267
0.2030	0.0000	57.0191
0.2040	0.0000	57.2109
0.2050	0.0000	57.4019
0.2060	0.0000	57.5921
0.2070	0.0000	57.7817
0.2080	0.0000	57.9705
0.2090	0.0000	58.1586
0.2100	0.0000	58.3460
0.2110	0.0000	58.5326
0.2120	0.0000	58.7185
0.2130	0.0000	58.9037
0.2140	0.0000	59.0881
0.2150	0.0000	59.2719
0.2160	0.0000	59.4549
0.2170	0.0000	59.6372
0.2180	0.0000	59.8187
0.2190	0.0000	59.9995
0.2200	0.0000	60.1796
0.2210	0.0000	60.3590
0.2220	0.0000	60.5376
0.2230	0.0000	60.7155
0.2240	0.0000	60.8927
0.2250	0.0000	61.0692
0.2260	0.0000	61.2449
0.2270	0.0000	61.4199
0.2280	0.0000	61.5942
0.2290	0.0000	61.7677
0.2300	0.0000	61.9406
0.2310	0.0000	62.1127
0.2320	0.0000	62.2840
0.2330	0.0000	62.4547
0.2340	0.0000	62.6246
0.2350	0.0000	62.7938
0.2360	0.0000	62.9622
0.2370	0.0000	63.1300
0.2380	0.0000	63.2970
0.2390	0.0000	63.4633
0.2400	0.0000	63.6288
0.2410	0.0000	63.7937
0.2420	0.0000	63.9578
0.2430	0.0000	64.1211
0.2440	0.0000	64.2838
0.2450	0.0000	64.4457
0.2460	0.0000	64.6069
0.2470	0.0000	64.7673
0.2480	0.0000	64.9271
0.2490	0.0000	65.0861
0.2500	0.0000	65.2444
0.2510	0.0000	65.4019
0.2520	0.0000	65.5588
0.2530	0.0000	65.7149
0.2540	0.0000	65.8702
0.2550	0.0000	66.0249
0.2560	0.0000	66.1788
0.2570	0.0000	66.3320
0.2580	0.0000	66.4845
0.2590	0.0000	66.6362
0.2600	0.0000	66.7872
0.2610	0.0000	66.9375
0.2620	0.0000	67.0871
0.2630	0.0000	67.2359
0.2640	0.0000	67.3840
0.2650	0.0000	67.5314
0.2660	0.0000	67.6780
0.2670	0.0000	67.8240
0.2680	0.0000	67.9692
0.2690	0.0000	68.1136
0.2700	0.0000	68.2574
0.2710	0.0000	68.4004
0.2720	0.0000	68.5427
0.2730	0.0000	68.6842
0.2740	0.0000	68.8251
0.2750	0.0000	68.9652
0.2760	0.0000	69.1046
0.2770	0.0000	69.2432
0.2780	0.0000	69.3811
0.2790	0.0000	69.5183
0.2800	0.0000	69.6548
0.2810	0.0000	69.7906
0.2820	0.0000	69.9256
0.2830	0.0000	70.0599
0.2840	0.0000	70.1934
0.2850	0.0000	70.3263
0.2860	0.0000	70.4584
0.2870	0.0000	70.5898
0.2880	0.0000	70.7204
0.2890	0.0000	70.8504
0.2900	0.0000	70.9796
0.2910	0.0000	71.1080
0.2920	0.0000	71.2358
0.2930	0.0000	71.3628
0.2940	0.0000	71.4891
0.2950	0.0000	71.6147
0.2960	0.0000	71.7395
0.2970	0.0000	71.8636
0.2980	0.0000	71.9870
0.2990	0.0000	72.1097
0.3000	0.0000	72.2316
0.3010	0.0000	72.3528
0.3020	0.0000	72.4733
0.3030	0.0000	72.5930
0.3040	0.0000	72.7121
0.3050	0.0000	72.8304
0.3060	0.0000	72.9479
0.3070	0.0000	73.0648
0.3080	0.0000	73.1809
0.3090	0.0000	73.2963
0.3100	0.0000	73.4109
0.3110	0.0000	73.5249
0.3120	0.0000	73.6381
0.3130	0.0000	73.7506
0.3140	0.0000	73.8623
0.3150	0.0000	73.9733
0.3160	0.0000	74.0836
0.3170	0.0000	74.1932
0.3180	0.0000	74.3021
0.3190	0.0000	74.4102
0.3200	0.0000	74.5176
0.3210	0.0000	74.6242
0.3220	0.0000	74.7302
0.3230	0.0000	74.8354
0.3240	0.0000	74.9399
0.3250	0.0000	75.0436
0.3260	0.0000	75.1467
0.3270	0.0000	75.2490
0.3280	0.0000	75.3505
0.3290	0.0000	75.4514
0.3300	0.0000	75.5515
0.3310	0.0000	75.6509
0.3320	0.0000	75.7496
0.3330	0.0000	75.8800
0.3340	0.0000	75.8800
0.3350	0.0000	75.8800
0.3360	0.0000	75.8800
0.3370	0.0000	75.8800
0.3380	0.0000	75.8800
0.3390	0.0000	75.8800
0.3400	0.0000	75.8800
0.3410	0.0000	75.8800
0.3420	0.0000	75.8800
0.3430	0.0000	75.8800
0.3440	0.0000	75.8800
0.3450	0.0000	75.8800
0.3460	0.0000	75.8800
0.3470	0.0000	75.8800
0.3480	0.0000	75.8800
0.3490	0.0000	75.8800
0.3500	0.0000	75.8800
0.3510	0.0000	75.8800
0.3520	0.0000	75.8800
0.3530	0.0000	75.8800
0.3540	0.0000	75.8800
0.3550	0.0000	75.8800
0.3560	0.0000	75.8800
0.3570	0.0000	75.8800
0.3580	0.0000	75.8800
0.3590	0.0000	75.8800
0.3600	0.0000	75.8800
0.3610	0.0000	75.8800
0.3620	0.0000	75.8800
